<svg width="199" height="50" viewBox="0 0 199 50" fill="none" xmlns="http://www.w3.org/2000/svg">
<path fill-rule="evenodd" clip-rule="evenodd" d="M0.969847 33.136C-0.661903 25.6772 0.0488424 17.9049 4.02556 12.0655C9.40061 4.17193 19.6135 -0.510437 27.4684 0.879946C32.4442 6.38794 34.1399 12.552 34.0757 19.4699C20.3177 14.8732 9.05141 18.6523 0.969847 33.136Z" fill="url(#paint0_linear)"/>
<path fill-rule="evenodd" clip-rule="evenodd" d="M0.816948 32.4994C-0.814802 25.0403 -0.103747 17.2683 3.87266 11.4289C9.24802 3.5353 19.4606 -1.14738 27.3158 0.243312C32.2914 5.751 33.987 11.9153 33.9231 18.8332C20.1651 14.2363 8.89882 18.0153 0.816948 32.4994Z" fill="url(#paint1_linear)"/>
<path fill-rule="evenodd" clip-rule="evenodd" d="M43.8612 41.5096C38.2759 46.7032 31.233 50.032 24.1947 49.5601C14.6809 48.922 5.47389 42.4766 2.68433 34.9866C4.8956 27.8945 9.33514 23.3028 15.3156 19.8486C18.3433 34.0635 27.3082 41.8772 43.8612 41.5096Z" fill="url(#paint2_linear)"/>
<path fill-rule="evenodd" clip-rule="evenodd" d="M43.2738 41.9049C37.6885 47.0982 30.6456 50.427 23.6073 49.9551C14.0934 49.317 4.88649 42.8716 2.09692 35.3816C4.3082 28.2898 8.74773 23.6981 14.7282 20.2437C17.7559 34.4588 26.7204 42.2722 43.2738 41.9049Z" fill="url(#paint3_linear)"/>
<path fill-rule="evenodd" clip-rule="evenodd" d="M29.9216 0.458496C37.1473 2.87967 43.4399 7.47694 46.4024 13.8932C50.4069 22.5663 49.1802 33.7553 43.9611 39.8011C36.6916 41.2577 30.5425 39.5557 24.6497 35.953C35.6424 26.4722 38.1831 14.8401 29.9216 0.458496Z" fill="url(#paint4_linear)"/>
<path fill-rule="evenodd" clip-rule="evenodd" d="M30.9821 1.06299C38.2078 3.48417 44.5002 8.08174 47.4627 14.498C51.4675 23.1711 50.2408 34.3598 45.0214 40.4056C37.7521 41.8625 31.6027 40.1602 25.7102 36.5575C36.7027 27.0767 39.2434 15.4449 30.9821 1.06299Z" fill="url(#paint5_linear)"/>
<path d="M81.7231 9.57324L76.1112 25.2017H72.9561L69.3459 15.1069L65.7363 25.2017H62.5506L56.9387 9.57324H60.8216L64.128 18.908L67.3739 9.57324H71.3179L71.2574 9.69517L74.5036 18.908L77.8705 9.57324H81.7231ZM99.4093 13.222H86.3948V15.5627H98.5596V19.2118H86.3948V21.5532H99.3787V25.2017H82.7549V9.57324H99.4093V13.222ZM118.096 25.2017H106.022C104.607 25.2017 103.404 24.7307 102.413 23.793C101.422 22.8504 100.926 21.6692 100.926 20.2559V14.5193C100.926 13.1054 101.422 11.9248 102.413 10.9822C103.404 10.0445 104.607 9.57324 106.022 9.57324H118.096V13.222H106.022C105.052 13.222 104.566 13.6577 104.566 14.5242V20.2507C104.566 21.1172 105.052 21.5532 106.022 21.5532H118.096V25.2017ZM138.846 25.2017H135.146V19.2118H123.254V25.2017H119.614V9.57324H123.254V15.5627H135.146V9.57324H138.846V25.2017ZM157.018 13.222H144.003V15.5627H156.168V19.2118H144.003V21.5532H156.987V25.2017H140.364V9.57324H157.018V13.222ZM177.677 25.2017H174.037V20.2457H164.45V16.5969H174.037V14.4079C174.037 13.6169 173.774 13.222 173.248 13.222H162.934C162.428 13.222 162.175 13.6169 162.175 14.4026V25.2017H158.535V14.398C158.535 13.0849 158.945 11.9499 159.764 10.9974C160.583 10.0495 161.639 9.57324 162.934 9.57324H173.248C174.562 9.57324 175.629 10.0495 176.449 10.9974C177.268 11.9499 177.677 13.0849 177.677 14.398V25.2017ZM198.731 14.864C198.731 16.2624 198.346 17.4585 197.578 18.4518C196.749 19.5665 195.656 20.1238 194.302 20.1238H182.834V25.2017H179.194V9.57324H194.302C195.656 9.57324 196.749 10.1309 197.578 11.2455C198.346 12.2593 198.731 13.465 198.731 14.864ZM195.09 14.864C195.09 13.7688 194.827 13.222 194.302 13.222H182.834V16.4753H194.302C194.827 16.4753 195.09 15.9381 195.09 14.864Z" fill="#FEFEFE"/>
<path d="M61.603 32.5538L61.2054 32.8601C60.9864 32.5739 60.7231 32.3569 60.4156 32.209C60.109 32.0614 59.7721 31.9875 59.4035 31.9875C59.0021 31.9875 58.6301 32.0849 58.2873 32.2783C57.9443 32.4718 57.68 32.732 57.4917 33.0582C57.3034 33.384 57.2086 33.7523 57.2086 34.1592C57.2086 34.7763 57.4191 35.2909 57.8403 35.7025C58.2614 36.1153 58.7928 36.3217 59.435 36.3217C60.1405 36.3217 60.7302 36.045 61.2054 35.4914L61.603 35.7941C61.3514 36.114 61.038 36.3628 60.6623 36.5374C60.2868 36.7122 59.8669 36.8001 59.4035 36.8001C58.5214 36.8001 57.8251 36.5058 57.316 35.9172C56.889 35.4212 56.675 34.8208 56.675 34.1184C56.675 33.3794 56.9335 32.7568 57.4506 32.2527C57.969 31.747 58.6171 31.4951 59.3964 31.4951C59.8669 31.4951 60.2915 31.5876 60.6706 31.773C61.0497 31.9593 61.361 32.2196 61.603 32.5538ZM62.6139 31.6217H63.1264V33.5168L65.1469 31.6217H65.8255L63.3966 33.8872L66.0151 36.6735H65.3423L63.1264 34.3143V36.6735H62.6139V31.6217ZM70.8473 36.6735H70.2987L68.6256 32.7626L66.9244 36.6735H66.3757L68.5728 31.6217H68.6852L70.8473 36.6735ZM73.7549 31.6217L76.1066 36.6735H75.5648L74.7774 35.013H72.593L71.8103 36.6735H71.2487L73.6286 31.6217H73.7549ZM73.6916 32.6819L72.8246 34.5204H74.5551L73.6916 32.6819ZM76.8834 37.4264H76.378V36.2022H76.7815L78.7591 31.6217H78.9332L81.0219 36.2022H81.4113V37.4264H80.9058V36.6735H76.8834V37.4264ZM77.3503 36.2022H80.4251L78.8489 32.6769L77.3503 36.2022ZM89.9942 36.6735H89.4678V32.792L86.1413 36.6735H86.028V31.6217H86.5334V35.5607L89.8809 31.6217H89.9942V36.6735ZM91.2064 31.6217H91.7118V33.7396H94.2812V31.6217H94.7867V36.6735H94.2812V34.2319H91.7118V36.6735H91.2064V31.6217ZM96.0093 37.4264H95.5039V36.2022H95.9074L97.885 31.6217H98.0591L100.148 36.2022H100.537V37.4264H100.032V36.6735H96.0093V37.4264ZM96.4762 36.2022H99.551L97.9748 32.6769L96.4762 36.2022ZM105.234 36.6735H104.707V32.792L101.381 36.6735H101.267V31.6217H101.773V35.5607L105.12 31.6217H105.234V36.6735ZM106.467 31.6217H107.46C107.86 31.6217 108.168 31.6684 108.382 31.7634C108.597 31.8584 108.767 32.0051 108.891 32.2022C109.016 32.3978 109.078 32.6172 109.078 32.8564C109.078 33.0817 109.023 33.2856 108.915 33.4698C108.806 33.6539 108.646 33.8027 108.435 33.9178C108.697 34.007 108.898 34.1112 109.039 34.2319C109.18 34.3517 109.289 34.4971 109.367 34.6683C109.446 34.8382 109.486 35.0235 109.486 35.2228C109.486 35.6288 109.338 35.9723 109.042 36.2527C108.746 36.5327 108.349 36.6735 107.851 36.6735H106.467V31.6217ZM106.958 32.114V33.7325H107.247C107.598 33.7325 107.857 33.6997 108.022 33.635C108.187 33.5694 108.318 33.4663 108.414 33.3255C108.511 33.1847 108.559 33.0275 108.559 32.8564C108.559 32.6256 108.478 32.4436 108.317 32.3112C108.154 32.1799 107.897 32.114 107.543 32.114H106.958ZM106.958 34.2391V36.1809H107.584C107.953 36.1809 108.223 36.1447 108.395 36.0732C108.567 36.0005 108.705 35.8866 108.809 35.7331C108.913 35.5793 108.966 35.4128 108.966 35.2346C108.966 35.0096 108.892 34.8125 108.746 34.6448C108.6 34.4783 108.399 34.3635 108.142 34.3013C107.97 34.2601 107.671 34.2391 107.244 34.2391H106.958ZM114.457 36.6735H113.93V32.792L110.604 36.6735H110.491V31.6217H110.996V35.5607L114.344 31.6217H114.457V36.6735ZM115.676 37.4264H115.171V36.2022H115.574L117.552 31.6217H117.726L119.815 36.2022H120.204V37.4264H119.699V36.6735H115.676V37.4264ZM116.143 36.2022H119.218L117.642 32.6769L116.143 36.2022ZM120.545 31.6356H121.11L122.64 35.0668L124.036 31.6217H124.588L122.673 36.1611C122.495 36.5869 122.179 36.8001 121.724 36.8001C121.541 36.8001 121.37 36.7627 121.207 36.6887C121.044 36.6138 120.839 36.4377 120.59 36.1611L120.958 35.8584C121.21 36.1082 121.379 36.2502 121.463 36.2842C121.548 36.3183 121.634 36.3359 121.72 36.3359C121.853 36.3359 121.967 36.3006 122.065 36.2304C122.161 36.1586 122.268 35.9828 122.384 35.7003L120.545 31.6356ZM127.526 31.6217L129.878 36.6735H129.336L128.549 35.013H126.364L125.582 36.6735H125.02L127.4 31.6217H127.526ZM127.463 32.6819L126.596 34.5204H128.326L127.463 32.6819ZM134.74 36.6735H134.192L132.519 32.7626L130.817 36.6735H130.269L132.466 31.6217H132.578L134.74 36.6735ZM135.584 31.6217H136.089V33.7888H136.453C137.113 33.7888 137.587 33.8204 137.875 33.885C138.163 33.9494 138.394 34.0961 138.57 34.3257C138.746 34.5569 138.834 34.8536 138.834 35.2169C138.834 35.5747 138.749 35.8702 138.577 36.1048C138.406 36.3393 138.187 36.4928 137.923 36.5655C137.657 36.6373 137.212 36.6735 136.589 36.6735H135.584V31.6217ZM136.089 36.1809H136.627C137.195 36.1809 137.565 36.154 137.737 36.1001C137.909 36.0463 138.047 35.9466 138.149 35.7999C138.25 35.6545 138.301 35.467 138.301 35.2383C138.301 34.9861 138.236 34.7821 138.109 34.6237C137.98 34.4665 137.817 34.3703 137.62 34.3341C137.422 34.2988 137.053 34.2811 136.514 34.2811H136.089V36.1809ZM139.831 31.6217H140.336V33.7396H142.906V31.6217H143.411V36.6735H142.906V34.2319H140.336V36.6735H139.831V31.6217ZM147.037 31.4951C147.8 31.4951 148.439 31.7507 148.952 32.2607C149.466 32.771 149.723 33.3995 149.723 34.1453C149.723 34.8852 149.467 35.5125 148.955 36.0274C148.441 36.5423 147.817 36.8001 147.078 36.8001C146.332 36.8001 145.701 36.5433 145.188 36.0308C144.674 35.5183 144.416 34.8982 144.416 34.1697C144.416 33.6845 144.533 33.2352 144.767 32.8202C145.001 32.4062 145.321 32.0812 145.726 31.8467C146.129 31.6124 146.567 31.4951 147.037 31.4951ZM147.059 31.9875C146.687 31.9875 146.334 32.0849 145.999 32.2796C145.666 32.4742 145.405 32.7357 145.217 33.0653C145.029 33.3958 144.936 33.7628 144.936 34.1688C144.936 34.7679 145.143 35.2745 145.558 35.6873C145.974 36.1014 146.474 36.3078 147.059 36.3078C147.451 36.3078 147.813 36.2128 148.145 36.0228C148.479 35.8328 148.738 35.5725 148.924 35.2429C149.111 34.9134 149.204 34.5476 149.204 34.1441C149.204 33.743 149.111 33.3806 148.924 33.0569C148.738 32.7332 148.475 32.4742 148.137 32.2796C147.799 32.0849 147.44 31.9875 147.059 31.9875ZM151.234 36.6735H150.728V31.6217H153.256V32.114H151.234V36.6735ZM156.381 31.4951C157.144 31.4951 157.783 31.7507 158.296 32.2607C158.81 32.771 159.067 33.3995 159.067 34.1453C159.067 34.8852 158.811 35.5125 158.299 36.0274C157.785 36.5423 157.16 36.8001 156.422 36.8001C155.675 36.8001 155.045 36.5433 154.531 36.0308C154.017 35.5183 153.76 34.8982 153.76 34.1697C153.76 33.6845 153.877 33.2352 154.111 32.8202C154.345 32.4062 154.665 32.0812 155.069 31.8467C155.473 31.6124 155.91 31.4951 156.381 31.4951ZM156.403 31.9875C156.031 31.9875 155.678 32.0849 155.343 32.2796C155.01 32.4742 154.749 32.7357 154.56 33.0653C154.373 33.3958 154.28 33.7628 154.28 34.1688C154.28 34.7679 154.487 35.2745 154.902 35.6873C155.317 36.1014 155.818 36.3078 156.403 36.3078C156.795 36.3078 157.157 36.2128 157.489 36.0228C157.822 35.8328 158.082 35.5725 158.268 35.2429C158.454 34.9134 158.548 34.5476 158.548 34.1441C158.548 33.743 158.454 33.3806 158.268 33.0569C158.082 32.7332 157.819 32.4742 157.481 32.2796C157.143 32.0849 156.783 31.9875 156.403 31.9875ZM163.702 31.6217H164.292L165.497 33.5836L166.707 31.6217H167.297L165.791 34.062L167.395 36.6735H166.805L165.496 34.5417L164.18 36.6735H163.59L165.201 34.062L163.702 31.6217ZM168.24 31.6217H169.245C169.821 31.6217 170.21 31.6461 170.411 31.6966C170.699 31.7684 170.934 31.9135 171.117 32.1354C171.3 32.3557 171.392 32.6336 171.392 32.9678C171.392 33.3045 171.303 33.5812 171.124 33.8006C170.946 34.0187 170.7 34.1651 170.388 34.2415C170.159 34.2966 169.732 34.3235 169.106 34.3235H168.745V36.6735H168.24V31.6217ZM168.745 32.114V33.8309L169.6 33.8414C169.944 33.8414 170.197 33.8098 170.358 33.7464C170.518 33.6833 170.644 33.5824 170.735 33.4416C170.827 33.3008 170.872 33.1427 170.872 32.9691C170.872 32.8001 170.827 32.6441 170.735 32.5036C170.644 32.3628 170.522 32.2632 170.373 32.2032C170.223 32.1434 169.978 32.114 169.637 32.114H168.745ZM174.459 31.6217L176.81 36.6735H176.269L175.481 35.013H173.297L172.514 36.6735H171.953L174.332 31.6217H174.459ZM174.395 32.6819L173.528 34.5204H175.259L174.395 32.6819ZM177.58 31.6217H178.086V33.7396H180.655V31.6217H181.16V36.6735H180.655V34.2319H178.086V36.6735H177.58V31.6217ZM182.39 31.6217H185.275V32.114H182.896V33.6972H185.254V34.1899H182.896V36.1809H185.254V36.6735H182.39V31.6217ZM186.14 31.6217H186.645V33.7396H189.215V31.6217H189.72V36.6735H189.215V34.2319H186.645V36.6735H186.14V31.6217ZM194.916 36.6735H194.39V32.792L191.063 36.6735H190.95V31.6217H191.455V35.5607L194.803 31.6217H194.916V36.6735ZM199 31.6217H197.994C197.433 31.6217 197.053 31.6452 196.854 31.6907C196.553 31.7588 196.31 31.9055 196.122 32.1317C195.934 32.3569 195.841 32.6348 195.841 32.9644C195.841 33.2389 195.905 33.4803 196.035 33.6879C196.164 33.8965 196.349 34.0537 196.589 34.1605C196.829 34.2672 197.162 34.3211 197.585 34.3235L195.771 36.6735H196.389L198.204 34.3235H198.494V36.6735H199V31.6217ZM198.494 32.114V33.8309L197.624 33.838C197.286 33.838 197.036 33.8064 196.875 33.7418C196.713 33.6774 196.587 33.5753 196.496 33.4345C196.406 33.294 196.36 33.1368 196.36 32.9619C196.36 32.7933 196.406 32.6382 196.498 32.4999C196.589 32.3616 196.71 32.2632 196.86 32.2032C197.008 32.1434 197.256 32.114 197.603 32.114H198.494Z" fill="#FEFEFE"/>
<defs>
<linearGradient id="paint0_linear" x1="-2.90498" y1="26.3688" x2="32.2818" y2="8.57452" gradientUnits="userSpaceOnUse">
<stop stop-color="#5B5B5B"/>
<stop offset="0.360784" stop-color="#C5C6C6"/>
<stop offset="0.54902" stop-color="#FEFEFE"/>
<stop offset="0.819608" stop-color="#C5C6C6"/>
<stop offset="1" stop-color="#5B5B5B"/>
</linearGradient>
<linearGradient id="paint1_linear" x1="-6.4103" y1="26.7952" x2="33.7368" y2="14.127" gradientUnits="userSpaceOnUse">
<stop stop-color="#393185"/>
<stop offset="0.360784" stop-color="#008DD2"/>
<stop offset="0.54902" stop-color="#FEFEFE"/>
<stop offset="0.819608" stop-color="#3B8AC9"/>
<stop offset="1" stop-color="#192226"/>
</linearGradient>
<linearGradient id="paint2_linear" x1="40.0077" y1="48.291" x2="6.77643" y2="27.0562" gradientUnits="userSpaceOnUse">
<stop stop-color="#727271"/>
<stop offset="0.360784" stop-color="#D9DADA"/>
<stop offset="0.54902" stop-color="#FEFEFE"/>
<stop offset="0.819608" stop-color="#D9DADA"/>
<stop offset="1" stop-color="#9D9E9E"/>
</linearGradient>
<linearGradient id="paint3_linear" x1="39.4302" y1="52.9846" x2="6.17612" y2="27.4545" gradientUnits="userSpaceOnUse">
<stop stop-color="#1F3747"/>
<stop offset="0.360784" stop-color="#008DD2"/>
<stop offset="0.54902" stop-color="#FEFEFE"/>
<stop offset="0.819608" stop-color="#3A87C4"/>
<stop offset="1" stop-color="#1F3747"/>
</linearGradient>
<linearGradient id="paint4_linear" x1="45.8226" y1="5.48343" x2="36.3882" y2="38.5529" gradientUnits="userSpaceOnUse">
<stop stop-color="#1F3747"/>
<stop offset="0.360784" stop-color="#3A87C4"/>
<stop offset="0.54902" stop-color="#FEFEFE"/>
<stop offset="0.819608" stop-color="#008DD2"/>
<stop offset="1" stop-color="#1F3747"/>
</linearGradient>
<linearGradient id="paint5_linear" x1="44.4739" y1="3.47365" x2="36.735" y2="41.0986" gradientUnits="userSpaceOnUse">
<stop stop-color="#727271"/>
<stop offset="0.360784" stop-color="#D9DADA"/>
<stop offset="0.54902" stop-color="#FEFEFE"/>
<stop offset="0.819608" stop-color="#B2B3B3"/>
<stop offset="1" stop-color="#C5C6C6"/>
</linearGradient>
</defs>
</svg>
