<svg width="15" height="19" viewBox="0 0 15 19" fill="none" xmlns="http://www.w3.org/2000/svg">
<path d="M7.23259 0.00483583C3.4973 0.137288 0.394193 3.0824 0.0356977 6.84169C-0.0375434 7.59355 0.00485941 8.32204 0.135922 9.01936C0.135922 9.01936 0.147487 9.10117 0.186035 9.25699C0.301678 9.77901 0.475144 10.2854 0.691012 10.7607C1.4427 12.5605 3.18121 15.5718 7.08226 18.8481C7.32125 19.0506 7.67204 19.0506 7.91489 18.8481C11.8159 15.5757 13.5545 12.5644 14.31 10.7568C14.5297 10.2815 14.6993 9.77901 14.815 9.2531C14.8497 9.10117 14.8651 9.01546 14.8651 9.01546C14.9537 8.54799 15 8.06882 15 7.57797C15 3.30055 11.496 -0.147094 7.23259 0.00483583ZM7.49858 11.349C5.48637 11.349 3.8558 9.7011 3.8558 7.66757C3.8558 5.63404 5.48637 3.98618 7.49858 3.98618C9.51078 3.98618 11.1414 5.63404 11.1414 7.66757C11.1414 9.7011 9.51078 11.349 7.49858 11.349Z" fill="#E9B45B"/>
</svg>
