<svg width="18" height="18" viewBox="0 0 18 18" fill="none" xmlns="http://www.w3.org/2000/svg">
<path d="M17.9617 13.9467C17.9108 13.7933 17.5869 13.5673 16.9901 13.2693C16.8285 13.1753 16.5981 13.0477 16.3001 12.8857C16.0018 12.7237 15.731 12.5745 15.4883 12.4381C15.245 12.3018 15.0171 12.1697 14.8042 12.042C14.7702 12.0165 14.6636 11.942 14.4847 11.8181C14.3055 11.6947 14.1544 11.603 14.0306 11.5432C13.9071 11.4838 13.7855 11.4539 13.6662 11.4539C13.4958 11.4539 13.2829 11.5754 13.0273 11.8181C12.7717 12.0612 12.5372 12.3252 12.3243 12.611C12.1112 12.8966 11.8853 13.1606 11.6469 13.4035C11.4082 13.6465 11.212 13.7679 11.0588 13.7679C10.9818 13.7679 10.8859 13.7464 10.771 13.7041C10.6561 13.6615 10.5687 13.625 10.5086 13.5956C10.4492 13.5656 10.3471 13.5061 10.2021 13.4163C10.0569 13.3268 9.97609 13.2778 9.95907 13.2693C8.79146 12.6214 7.79007 11.8799 6.95472 11.045C6.11963 10.2095 5.378 9.20828 4.73028 8.0406C4.72177 8.02354 4.67264 7.94254 4.58322 7.79774C4.49366 7.6528 4.43397 7.55066 4.40415 7.49084C4.37433 7.43124 4.3381 7.34384 4.29556 7.22881C4.25302 7.11378 4.23166 7.01796 4.23166 6.94117C4.23166 6.78785 4.35315 6.59173 4.59607 6.35308C4.83895 6.11455 5.10324 5.88861 5.38866 5.6757C5.67431 5.46279 5.93832 5.22834 6.18129 4.97276C6.42418 4.71704 6.54562 4.50409 6.54562 4.33367C6.54562 4.21443 6.51579 4.09286 6.45619 3.96932C6.39655 3.84552 6.30493 3.69444 6.18129 3.51538C6.05761 3.33641 5.98306 3.22998 5.95744 3.19572C5.82973 2.98281 5.69777 2.75486 5.56124 2.51195C5.42471 2.26908 5.27568 1.99836 5.11367 1.70011C4.9518 1.40199 4.82404 1.17179 4.73019 1.00988C4.43205 0.413419 4.20623 0.0894181 4.05277 0.0384628C3.99308 0.0128956 3.90352 0 3.78432 0C3.55406 0 3.25369 0.0425374 2.88296 0.127881C2.5121 0.21309 2.22028 0.302463 2.00717 0.396359C1.58101 0.57524 1.12933 1.09509 0.651982 1.95574C0.217312 2.75669 0 3.54946 0 4.33344C0 4.56337 0.0149114 4.78707 0.0447342 5.00459C0.074557 5.22189 0.127844 5.46695 0.20464 5.73973C0.281302 6.01242 0.343142 6.21499 0.389891 6.3469C0.436685 6.4789 0.524049 6.71536 0.651938 7.05638C0.779647 7.3973 0.856443 7.606 0.882012 7.68271C1.18029 8.51796 1.53399 9.26362 1.94305 9.91991C2.61608 11.0107 3.53454 12.1381 4.6979 13.3015C5.8613 14.4647 6.98848 15.3831 8.07948 16.0564C8.73571 16.4653 9.48169 16.819 10.3169 17.1175C10.3936 17.1429 10.6023 17.2195 10.9431 17.3477C11.2841 17.4754 11.5207 17.5628 11.6527 17.6097C11.7847 17.6566 11.9873 17.7185 12.2598 17.7953C12.5329 17.8721 12.7777 17.9254 12.995 17.9554C13.2125 17.9848 13.4363 18 13.6662 18C14.4502 18 15.2431 17.7826 16.0442 17.348C16.9048 16.8708 17.4246 16.4191 17.6036 15.9926C17.6977 15.7798 17.7868 15.4879 17.8721 15.117C17.9575 14.7464 18 14.4461 18 14.2159C18.0003 14.0962 17.9874 14.0069 17.9617 13.9467Z" fill="#E9B45B"/>
</svg>
