<svg width="56" height="34" viewBox="0 0 56 34" fill="none" xmlns="http://www.w3.org/2000/svg">
<path fill-rule="evenodd" clip-rule="evenodd" d="M55.6892 0L36.2648 31.9628L35.0268 34L33.828 31.9403L27.9245 21.7976L21.7622 31.9616L20.5485 33.9635L19.3366 31.9605L1.52588e-05 0H3.28396L20.551 28.5399L26.7337 18.3423L30.8744 11.3734L32.0881 9.33066L33.3095 11.3691L35.0651 14.2992L43.804 0H47.0966L36.263 17.7268L35.0411 19.7263L33.8369 17.7164L32.0983 14.8148L29.5795 19.054L35.0794 28.5034L52.4014 0H55.6892ZM32.5933 0L21.7597 17.7268L20.5417 19.7198L19.3356 17.7199L8.64872 0H11.9299L20.5578 14.3058L29.3006 0H32.5933Z" fill="url(#paint0_linear)"/>
<defs>
<linearGradient id="paint0_linear" x1="49.8882" y1="-5.40909" x2="22.0832" y2="42.5229" gradientUnits="userSpaceOnUse">
<stop stop-color="#6ED5FF"/>
<stop offset="1" stop-color="#0392CC"/>
</linearGradient>
</defs>
</svg>
